<?xml version="1.0" encoding="UTF-8"?>
<!-- Generator: Adobe Illustrator 16.2.1, SVG Export Plug-In . SVG Version: 6.00 Build 0)  -->
<!DOCTYPE svg PUBLIC "-//W3C//DTD SVG 1.1//EN" "http://www.w3.org/Graphics/SVG/1.1/DTD/svg11.dtd">
<svg version="1.1" id="Layer_1" xmlns="http://www.w3.org/2000/svg" xmlns:xlink="http://www.w3.org/1999/xlink" x="0px" y="0px" width="19.98px" height="19.98px" viewBox="0 0 19.98 19.98" enable-background="new 0 0 19.98 19.98" xml:space="preserve">
<path fill="#FFFFFF" d="M9.99,0C4.473,0,0,4.473,0,9.99c0,5.517,4.473,9.99,9.99,9.99c5.517,0,9.99-4.474,9.99-9.99  C19.98,4.473,15.507,0,9.99,0z M15.114,6.65l-6.203,7.96c-0.049,0.05-0.129,0.156-0.228,0.156c-0.103,0-0.169-0.071-0.228-0.129  c-0.058-0.059-3.519-3.386-3.519-3.386L4.87,11.186c-0.027-0.04-0.049-0.089-0.049-0.143S4.843,10.94,4.87,10.9  c0.018-0.019,0.031-0.031,0.049-0.054c0.343-0.361,1.039-1.093,1.083-1.137C6.061,9.651,6.11,9.575,6.217,9.575  c0.111,0,0.183,0.094,0.236,0.147c0.053,0.054,2.007,1.932,2.007,1.932l4.964-6.378c0.044-0.036,0.098-0.062,0.155-0.062  c0.059,0,0.112,0.022,0.156,0.058l1.365,1.075c0.035,0.045,0.058,0.098,0.058,0.156C15.164,6.561,15.142,6.609,15.114,6.65z"/>
</svg>